<svg width="80" height="80" viewBox="0 0 80 80" fill="none" xmlns="http://www.w3.org/2000/svg">
  <!-- Pizza crust - golden brown realistic -->
  <circle cx="40" cy="40" r="36" fill="#D2691E" stroke="#A0522D" stroke-width="3"/>
  
  <!-- Pizza base - creamy cheese layer -->
  <circle cx="40" cy="40" r="30" fill="#FFF8DC"/>
  
  <!-- Sauce layer - tomato red underneath cheese -->
  <circle cx="40" cy="40" r="28" fill="#DC143C" opacity="0.3"/>
  
  <!-- Melted cheese texture -->
  <circle cx="40" cy="40" r="28" fill="url(#cheeseGradient)"/>
  
  <!-- Pepperoni slices - realistic salami red -->
  <circle cx="28" cy="25" r="4.5" fill="#B22222" stroke="#8B0000" stroke-width="0.5"/>
  <circle cx="52" cy="28" r="4.5" fill="#B22222" stroke="#8B0000" stroke-width="0.5"/>
  <circle cx="30" cy="50" r="4.5" fill="#B22222" stroke="#8B0000" stroke-width="0.5"/>
  <circle cx="50" cy="48" r="4.5" fill="#B22222" stroke="#8B0000" stroke-width="0.5"/>
  <circle cx="40" cy="38" r="4.5" fill="#B22222" stroke="#8B0000" stroke-width="0.5"/>
  
  <!-- Pepperoni shine/texture -->
  <circle cx="29" cy="23" r="1.5" fill="#DC143C" opacity="0.6"/>
  <circle cx="53" cy="26" r="1.5" fill="#DC143C" opacity="0.6"/>
  <circle cx="31" cy="48" r="1.5" fill="#DC143C" opacity="0.6"/>
  <circle cx="51" cy="46" r="1.5" fill="#DC143C" opacity="0.6"/>
  <circle cx="41" cy="36" r="1.5" fill="#DC143C" opacity="0.6"/>
  
  <!-- Green basil leaves -->
  <ellipse cx="35" cy="32" rx="3" ry="5" fill="#228B22" transform="rotate(25 35 32)"/>
  <ellipse cx="45" cy="42" rx="3" ry="5" fill="#228B22" transform="rotate(-15 45 42)"/>
  <ellipse cx="25" cy="40" rx="2.5" ry="4" fill="#228B22" transform="rotate(45 25 40)"/>
  
  <!-- Mushroom slices - brown -->
  <ellipse cx="22" cy="30" rx="3" ry="2" fill="#8B4513"/>
  <ellipse cx="58" cy="35" rx="3" ry="2" fill="#8B4513"/>
  <ellipse cx="40" cy="55" rx="3" ry="2" fill="#8B4513"/>
  
  <!-- Bell pepper strips - red and yellow -->
  <path d="M33 45 Q35 43 37 45 L36 47 L34 47 Z" fill="#FF6347"/>
  <path d="M43 25 Q45 23 47 25 L46 27 L44 27 Z" fill="#FFD700"/>
  
  <!-- Cheese bubbles/melted effect -->
  <circle cx="20" cy="45" r="2" fill="#FFFFE0" opacity="0.8"/>
  <circle cx="60" cy="30" r="2" fill="#FFFFE0" opacity="0.8"/>
  <circle cx="45" cy="55" r="2" fill="#FFFFE0" opacity="0.8"/>
  
  <!-- Crust texture/bubbles -->
  <circle cx="15" cy="25" r="1.5" fill="#CD853F"/>
  <circle cx="65" cy="40" r="1.5" fill="#CD853F"/>
  <circle cx="40" cy="10" r="1.5" fill="#CD853F"/>
  <circle cx="25" cy="70" r="1.5" fill="#CD853F"/>
  
  <!-- Overall cheese shine -->
  <ellipse cx="35" cy="35" rx="15" ry="10" fill="rgba(255,255,255,0.15)" transform="rotate(-20 35 35)"/>
  
  <!-- Gradients -->
  <defs>
    <radialGradient id="cheeseGradient" cx="40%" cy="30%">
      <stop offset="0%" style="stop-color:#FFFFE0;stop-opacity:0.9" />
      <stop offset="60%" style="stop-color:#F5DEB3;stop-opacity:0.7" />
      <stop offset="100%" style="stop-color:#DEB887;stop-opacity:0.5" />
    </radialGradient>
  </defs>
</svg>
